<svg version="1.2" xmlns="http://www.w3.org/2000/svg" viewBox="0 0 1080 1080" width="1080" height="1080">
	<path 
		fill="currentColor"
		d="m164.91 721.65c-8.48 14.66-15.54 27.15-15.7 27.75-0.17 0.65 13.68 5.09 34 10.9 18.86 5.4 43.97 12.85 55.79 16.56 11.82 3.71 23.98 8.14 27 9.84 3.02 1.7 8.65 6.42 12.5 10.5 4.53 4.8 8.3 10.03 10.68 14.85 2.03 4.1 4.62 10.26 5.75 13.7 1.14 3.44 2.74 10.41 3.57 15.5 0.82 5.09 1.53 16 1.57 24.25 0.05 10.39-0.44 17.46-1.6 23-0.92 4.4-2.59 10.48-3.72 13.5-1.13 3.03-3.42 7.98-5.08 11-1.67 3.03-6.44 8.88-10.6 13.02-5.27 5.23-10 8.79-15.57 11.7-4.4 2.3-11.6 5.2-16 6.45-7.88 2.23-8.96 2.27-71.75 2.55-35.06 0.15-63.77 0.17-63.78 0.03-0.02-0.14 18.43-31.86 41-70.5 22.56-38.64 41.04-70.59 41.04-71 0.01-0.41-14.82-5.02-32.95-10.25-18.13-5.22-33.15-9.27-33.37-9-0.23 0.28-29.05 49.89-64.05 110.25-35 60.36-63.64 109.98-63.64 110.25 0 0.28 53.32 0.5 118.5 0.5 78.48 0 121.12-0.36 126.25-1.07 4.26-0.58 12.02-2.14 17.25-3.45 5.23-1.31 12.54-3.53 16.25-4.93 3.71-1.4 10.46-4.41 15-6.68 4.54-2.28 10.95-5.95 14.25-8.16 3.3-2.21 8.9-6.54 12.44-9.62 3.54-3.07 12.78-13.24 20.54-22.59 7.75-9.35 17.23-21.03 21.06-25.95 3.83-4.92 12.06-15.95 18.3-24.5 6.24-8.55 19.29-27.38 29-41.84 9.71-14.47 17.89-26.28 18.16-26.27 0.27 0.02 25.48 7.25 56 16.06 30.52 8.81 56.17 16.02 57 16.02 0.83 0 41.66-11.59 90.75-25.76 49.09-14.17 89.26-26.1 89.25-26.51 0-0.41-7.09-12.9-15.75-27.76-8.66-14.86-16.31-27.01-17-27-0.69 0.01-33.65 9.24-73.25 20.51-39.6 11.28-72.9 20.5-74 20.5-1.1 0-34.4-9.22-74-20.5-39.6-11.27-72.56-20.5-73.25-20.51-0.69-0.01-9.12 13.51-18.75 30.03-9.62 16.53-17.77 29.69-18.1 29.26-0.33-0.43-1.38-3.7-2.34-7.28-0.95-3.58-3.32-10.55-5.26-15.5-1.94-4.95-5.38-12.37-7.64-16.5-2.26-4.12-6.64-10.87-9.73-15-3.08-4.12-9.17-10.88-13.52-15.01-4.35-4.14-11.06-9.62-14.91-12.19-3.85-2.56-10.6-6.34-15-8.39-5-2.32-26.21-8.92-56.5-17.57-26.68-7.63-48.99-13.86-49.59-13.85-0.61 0.01-8.03 12-16.5 26.66zm699.67-17.36c-17.56 5.04-31.85 9.51-31.75 9.94 0.09 0.42 12.1 21.36 26.68 46.52 14.58 25.16 26.39 45.84 26.25 45.95-0.14 0.11-55.5 15.86-123.01 35-67.51 19.14-122.75 35.14-122.75 35.55 0 0.41 7.24 13.01 16.09 28 8.84 14.99 16.29 27.48 16.54 27.75 0.26 0.28 7.98-1.65 17.17-4.27 9.18-2.62 16.74-4.64 16.79-4.5 0.05 0.15 2.25 3.65 4.89 7.77 2.63 4.13 7.61 10.88 11.07 15 3.46 4.13 9.14 10.24 12.62 13.6 3.48 3.35 9.03 8.24 12.33 10.86 3.3 2.62 10.05 7.26 15 10.32 4.95 3.05 12.15 6.99 16 8.74 3.85 1.75 10.83 4.58 15.5 6.28 4.68 1.7 13 4.2 18.5 5.56 5.5 1.36 13.26 2.96 17.25 3.56 4.89 0.73 46.78 1.08 128.75 1.08 66.83 0 121.5-0.22 121.5-0.5 0-0.27-16.46-28.96-36.58-63.75-20.12-34.79-36.79-63.47-37.05-63.75-0.26-0.27-15.3 3.78-33.43 9-18.12 5.23-32.95 9.84-32.95 10.25 0.01 0.41 6.31 11.33 14.01 24.25 7.7 12.92 14 23.73 14 24 0 0.28-29.59 0.34-65.75 0.15-54.78-0.28-66.83-0.6-72.25-1.88-3.57-0.84-9.87-2.92-14-4.62-4.12-1.69-10.42-4.95-14-7.23-3.57-2.28-10.59-8.26-15.58-13.29-5-5.02-9.8-10.48-10.68-12.13l-1.6-3c163.42-47.27 210.87-61.34 210.86-61.75 0-0.41-19.24-33.83-42.75-74.26-27.5-47.29-43.29-73.49-44.25-73.44-0.82 0.05-15.86 4.21-33.42 9.24zm-326.88-628.1c-0.84 1.27-76.64 132.47-168.44 291.56-91.8 159.08-166.99 289.58-167.08 290-0.1 0.41 75.76 24.09 168.57 52.61 92.81 28.52 169.65 51.67 170.75 51.44 1.1-0.23 77.26-23.57 169.25-51.86 91.98-28.29 167.22-51.89 167.19-52.44-0.04-0.55-75.75-131.92-168.25-291.92-92.5-160.01-168.7-291.1-169.33-291.32-0.63-0.21-1.83 0.66-2.66 1.93z"
	/>
</svg>